<?xml version="1.0" standalone="no"?>
<!DOCTYPE svg PUBLIC "-//W3C//DTD SVG 20010904//EN" "http://www.w3.org/TR/2001/REC-SVG-20010904/DTD/svg10.dtd">
<!-- Created using Krita: https://krita.org -->
<svg xmlns="http://www.w3.org/2000/svg" 
    xmlns:xlink="http://www.w3.org/1999/xlink"
    xmlns:krita="http://krita.org/namespaces/svg/krita"
    xmlns:sodipodi="http://sodipodi.sourceforge.net/DTD/sodipodi-0.dtd"
    width="604.725pt"
    height="604.725pt"
    viewBox="0 0 604.725 604.725">
<defs/>
<rect id="shape0" transform="matrix(1.00000002018358 0 0 1.00000002018358 97.2000019618365 424.08000855942)" fill="#142147" fill-rule="evenodd" stroke="#142147" stroke-width="10.7999999999991" stroke-linecap="square" stroke-linejoin="bevel" width="419.039999999966" height="139.679999999989"/><rect id="shape1" transform="matrix(1.00000002018358 0 0 1.00000002018358 103.680002092626 429.840008675678)" fill="#0e152a" fill-rule="evenodd" stroke="#0e152a" stroke-width="10.7999999999991" stroke-linecap="square" stroke-linejoin="bevel" width="406.799999999967" height="125.99999999999"/><path id="shape2" transform="matrix(1.12925353281182 0 0 1.11388774975287 45.9792765890431 32.8640585474947)" fill="#101934" fill-rule="evenodd" stroke="#101934" stroke-width="10.7999999999991" stroke-linecap="square" stroke-linejoin="bevel" d="M2.16 0L0 372.6L452.52 203.04L2.16 0"/><path id="shape3" transform="matrix(1.00000002018358 0 0 1.00000002018358 150.189481002163 436.92166604538)" fill="none" stroke="#d3deff" stroke-width="10.7999999999991" stroke-linecap="square" stroke-linejoin="bevel" d="M71.2764 6.01003C39.8082 -6.64114 -3.14719 -1.43227 3.56382 42.1573C18.4343 77.3702 61.3481 31.1932 75.8584 77.2864C82.1648 118.809 32.3975 121.426 0 99.1784"/><path id="shape4" transform="matrix(1.00000002018358 0 0 1.00000002018358 254.314319398023 439.393276527959)" fill="none" stroke="#d3deff" stroke-width="10.7999999999991" stroke-linecap="square" stroke-linejoin="bevel" d="M1.26236 0.483712C0.75324 12.5202 -9.53028 104.12 38.5236 107.332C90.2737 106.212 81.208 -35.8788 80.1755 8.62958C79.9223 37.0536 79.215 114.976 113.348 112.428"/><path id="shape5" transform="matrix(1.00000002018358 0 0 1.00000002018358 384.957067459619 430.969521648707)" fill="none" stroke="#d3deff" stroke-width="10.7999999999991" stroke-linecap="square" stroke-linejoin="bevel" d="M7.56322 61.8794C44.7878 66.5351 47.7376 65.9851 64.6789 75.8466C87.1479 88.9258 55.9617 125.035 7.06293 121.931C-4.91901 123.262 1.97176 18.8017 1.97176 4.83453C30.3387 -1.77697 50.1943 -1.60726 61.5384 5.34365C89.2492 22.3229 58.7116 64.5398 18.6454 62.5445"/><rect id="shape6" transform="matrix(1.12925353281182 0 0 1.11388774975287 48.4184689522599 69.3550265749518)" fill="none" stroke="#000000" stroke-opacity="0" stroke-width="0" stroke-linecap="square" stroke-linejoin="bevel" width="372.95999999997" height="318.239999999975"/><path id="shape7" transform="matrix(1.12925353281182 0 0 1.11388774975287 43.4500867668648 26.9999997793338)" fill="none" stroke="#c5befb" stroke-width="10.7999999999991" stroke-linecap="square" stroke-linejoin="bevel" d="M1.11587 0L0 380.511L458.621 209.783L1.11587 0"/><path id="shape8" transform="matrix(1.12925353281182 0 0 1.11388774975287 74.0299325885399 73.7660141585732)" fill="#12401c" fill-rule="evenodd" stroke="#12401c" stroke-width="10.7999999999991" stroke-linecap="square" stroke-linejoin="bevel" d="M0 0L1.08 297L347.76 165.24L0 0"/><path id="shape9" transform="matrix(1.12925353281182 0 0 1.11388774975287 97.2022136316024 103.84098151966)" fill="#1c662c" fill-rule="evenodd" stroke="#1c662c" stroke-width="10.7999999999991" stroke-linecap="square" stroke-linejoin="bevel" d="M0 0L0 238.68L270 135L0 0"/><path id="shape10" transform="matrix(1.12925353281182 0 0 1.11388774975287 115.496119718231 137.524944964077)" fill="#289941" fill-rule="evenodd" stroke="#289941" stroke-width="10.7999999999991" stroke-linecap="square" stroke-linejoin="bevel" d="M1.08 0L0 184.68L211.68 102.6L1.08 0"/>
</svg>
